<?xml version="1.0" encoding="utf-8"?>
<svg version="1.1" xmlns:xlink="http://www.w3.org/1999/xlink" width="40px" height="40px" xmlns="http://www.w3.org/2000/svg">
  <g transform="matrix(1 0 0 1 -10 -575 )">
    <path d="M 29.752604166666664 16.9140625  C 29.91753472222223 17.078993055555554  30 17.274305555555554  30 17.5  L 30 22.5  C 30 22.725694444444446  29.91753472222223 22.921006944444446  29.752604166666664 23.0859375  C 29.58767361111111 23.250868055555554  29.39236111111111 23.33333333333333  29.166666666666664 23.33333333333333  L 20 23.33333333333333  L 20 28.33333333333333  C 20 28.576388888888886  19.921875 28.77604166666667  19.765625 28.93229166666667  C 19.609375 29.08854166666667  19.40972222222222 29.16666666666667  19.166666666666668 29.16666666666667  C 18.958333333333332 29.16666666666667  18.75 29.079861111111107  18.541666666666668 28.90625  L 10.234375 20.59895833333333  C 10.078125 20.44270833333333  10 20.243055555555554  10 20  C 10 19.756944444444443  10.078125 19.557291666666664  10.234375 19.401041666666664  L 18.567708333333332 11.067708333333336  C 18.723958333333332 10.911458333333336  18.923611111111114 10.833333333333336  19.166666666666668 10.833333333333336  C 19.392361111111114 10.833333333333336  19.587673611111114 10.915798611111107  19.752604166666668 11.080729166666664  C 19.91753472222222 11.245659722222218  20 11.440972222222218  20 11.666666666666664  L 20 16.666666666666664  L 29.166666666666664 16.666666666666664  C 29.39236111111111 16.666666666666664  29.58767361111111 16.749131944444446  29.752604166666664 16.9140625  Z M 32.265625 27.109375  C 33.532986111111114 24.939236111111107  34.166666666666664 22.569444444444446  34.166666666666664 20  C 34.166666666666664 17.430555555555554  33.532986111111114 15.06076388888889  32.265625 12.890625  C 30.998263888888893 10.720486111111107  29.279513888888893 9.001736111111107  27.109375 7.734375  C 24.93923611111111 6.467013888888888  22.569444444444446 5.833333333333335  20 5.833333333333335  C 17.430555555555557 5.833333333333335  15.060763888888891 6.467013888888888  12.890625 7.734375  C 10.72048611111111 9.001736111111107  9.00173611111111 10.720486111111107  7.734375 12.890625  C 6.467013888888889 15.06076388888889  5.833333333333334 17.430555555555554  5.833333333333334 20  C 5.833333333333334 22.569444444444446  6.467013888888889 24.939236111111107  7.734375 27.109375  C 9.00173611111111 29.279513888888886  10.72048611111111 30.99826388888889  12.890625 32.265625  C 15.060763888888891 33.532986111111114  17.430555555555557 34.166666666666664  20 34.166666666666664  C 22.569444444444446 34.166666666666664  24.93923611111111 33.532986111111114  27.109375 32.265625  C 29.279513888888893 30.99826388888889  30.998263888888893 29.279513888888886  32.265625 27.109375  Z M 37.317708333333336 9.9609375  C 39.10590277777777 13.025173611111107  40 16.37152777777777  40 20  C 40 23.62847222222222  39.10590277777777 26.974826388888886  37.317708333333336 30.0390625  C 35.52951388888889 33.103298611111114  33.103298611111114 35.529513888888886  30.0390625 37.317708333333336  C 26.974826388888893 39.10590277777778  23.62847222222222 40  20 40  C 16.37152777777778 40  13.02517361111111 39.10590277777778  9.9609375 37.317708333333336  C 6.896701388888889 35.529513888888886  4.470486111111112 33.103298611111114  2.682291666666667 30.0390625  C 0.8940972222222221 26.974826388888886  0 23.62847222222222  0 20  C 0 16.37152777777777  0.8940972222222221 13.025173611111107  2.682291666666667 9.9609375  C 4.470486111111112 6.896701388888888  6.896701388888889 4.470486111111107  9.9609375 2.682291666666665  C 13.02517361111111 0.8940972222222188  16.37152777777778 0  20 0  C 23.62847222222222 0  26.974826388888893 0.8940972222222188  30.0390625 2.682291666666665  C 33.103298611111114 4.470486111111107  35.52951388888889 6.896701388888888  37.317708333333336 9.9609375  Z " fill-rule="nonzero" fill="#d7d7d7" stroke="none" transform="matrix(1 0 0 1 10 575 )" />
  </g>
</svg>